HIERARCHY
ROOT Hips
{
	OFFSET -0.001795 -0.223333 0.028219
	CHANNELS 6 Xposition Yposition Zposition Zrotation Yrotation Xrotation 
	JOINT LeftUpLeg
	{
		OFFSET 0.069520 -0.091406 -0.006815
		CHANNELS 3 Zrotation Yrotation Xrotation
		JOINT LeftLeg
		{
			OFFSET 0.034277 -0.375199 -0.004496
			CHANNELS 3 Zrotation Yrotation Xrotation
			JOINT LeftFoot
			{
				OFFSET -0.013596 -0.397961 -0.043693
				CHANNELS 3 Zrotation Yrotation Xrotation
				JOINT LeftToe
				{
					OFFSET 0.026358 -0.055791 0.119288
					CHANNELS 3 Zrotation Yrotation Xrotation
					End Site
					{
						OFFSET 0.000000 0.000000 0.000000
					}
				}
			}
		}
	}
	JOINT RightUpLeg
	{
		OFFSET -0.067670 -0.090522 -0.004320
		CHANNELS 3 Zrotation Yrotation Xrotation
		JOINT RightLeg
		{
			OFFSET -0.038290 -0.382569 -0.008850
			CHANNELS 3 Zrotation Yrotation Xrotation
			JOINT RightFoot
			{
				OFFSET 0.015774 -0.398415 -0.042312
				CHANNELS 3 Zrotation Yrotation Xrotation
				JOINT RightToe
				{
					OFFSET -0.025372 -0.048144 0.123348
					CHANNELS 3 Zrotation Yrotation Xrotation
					End Site
					{
						OFFSET 0.000000 0.000000 0.000000
					}
				}
			}
		}
	}
	JOINT Spine
	{
		OFFSET -0.002533 0.108963 -0.026696
		CHANNELS 3 Zrotation Yrotation Xrotation
		JOINT Spine1
		{
			OFFSET 0.005487 0.135180 0.001092
			CHANNELS 3 Zrotation Yrotation Xrotation
			JOINT Spine2
			{
				OFFSET 0.001457 0.052922 0.025425
				CHANNELS 3 Zrotation Yrotation Xrotation
				JOINT Neck
				{
					OFFSET -0.002778 0.213870 -0.042857
					CHANNELS 3 Zrotation Yrotation Xrotation
					JOINT Head
					{
						OFFSET 0.005152 0.064970 0.051349
						CHANNELS 3 Zrotation Yrotation Xrotation
						End Site
						{
							OFFSET 0.000000 0.000000 0.000000
						}
					}
				}
				JOINT LeftShoulder
				{
					OFFSET 0.078845 0.121749 -0.034090
					CHANNELS 3 Zrotation Yrotation Xrotation
					JOINT LeftArm
					{
						OFFSET 0.090977 0.030469 -0.008868
						CHANNELS 3 Zrotation Yrotation Xrotation
						JOINT LeftForeArm
						{
							OFFSET 0.259612 -0.012772 -0.027456
							CHANNELS 3 Zrotation Yrotation Xrotation
							JOINT LeftHand
							{
								OFFSET 0.249234 0.008986 -0.001171
								CHANNELS 3 Zrotation Yrotation Xrotation
								End Site
								{
									OFFSET 0.000000 0.000000 0.000000
								}
							}
						}
					}
				}
				JOINT RightShoulder
				{
					OFFSET -0.081759 0.118833 -0.038615
					CHANNELS 3 Zrotation Yrotation Xrotation
					JOINT RightArm
					{
						OFFSET -0.096012 0.032551 -0.009143
						CHANNELS 3 Zrotation Yrotation Xrotation
						JOINT RightForeArm
						{
							OFFSET -0.253742 -0.013329 -0.021401
							CHANNELS 3 Zrotation Yrotation Xrotation
							JOINT RightHand
							{
								OFFSET -0.255298 0.007772 -0.005559
								CHANNELS 3 Zrotation Yrotation Xrotation
								End Site
								{
									OFFSET 0.000000 0.000000 0.000000
								}
							}
						}
					}
				}
			}
		}
	}
}
MOTION
Frames: 10
Frame Time: 0.050000
-0.441457 0.914144 2.736572 1.545129 -14.805194 -11.899392 -3.133669 -1.407786 -12.136466 -3.058264 1.756865 28.140496 3.585281 8.340818 6.127332 0.000000 0.000000 0.000000 -1.072542 -0.179704 3.264421 0.438804 7.464631 57.164105 -3.495764 -9.767529 3.297596 0.000000 0.000000 0.000000 -0.207685 -0.294429 14.048423 -5.913522 1.850764 -27.372223 -1.714125 7.280182 36.860436 8.172873 -2.527467 -35.976958 0.000000 0.000000 0.000000 -19.429814 -1.935894 1.117398 -41.505938 -10.325011 -4.836311 -94.391135 -66.613862 79.027973 0.000000 0.000000 0.000000 24.221923 -13.550456 -10.296140 51.557052 -8.800938 -11.787328 103.748213 34.869370 46.967775 0.000000 0.000000 0.000000 
-0.451554 0.927189 2.797965 0.455406 -16.018074 -12.649054 -3.652889 -0.835711 -5.914194 -0.643064 0.615986 24.000236 3.338859 7.937974 6.716058 0.000000 0.000000 0.000000 0.968738 0.479685 -4.650003 1.549251 6.278764 53.183561 -5.375490 -13.147683 0.772561 0.000000 0.000000 0.000000 2.193822 -0.520628 15.085622 -5.224923 1.668770 -26.964785 -5.267719 3.326008 35.801497 8.049059 -3.635050 -33.621518 0.000000 0.000000 0.000000 -17.018223 -4.887569 3.692782 -42.563014 -17.083938 -2.863086 -78.817098 -73.834328 73.597121 0.000000 0.000000 0.000000 21.592326 -13.474978 -10.819210 50.314873 -12.204572 -12.620828 103.150268 32.593988 40.355955 0.000000 0.000000 0.000000 
-0.462847 0.956067 2.851762 -0.947523 -16.466905 -10.512052 -3.533501 -0.286466 -1.478793 1.382385 -0.318378 17.589973 3.131712 7.999929 11.168810 0.000000 0.000000 0.000000 3.810773 1.484328 -11.026422 -0.030933 4.968103 42.105695 -3.572772 -10.405432 3.930071 0.000000 0.000000 0.000000 4.355954 -0.697591 13.592285 -4.093315 1.413727 -28.275236 -7.188783 0.398643 36.723708 6.449599 -3.268651 -34.611797 0.000000 0.000000 0.000000 -16.233261 -4.142354 3.945790 -43.439827 -20.496300 -1.822970 -85.805584 -77.448148 86.035751 0.000000 0.000000 0.000000 17.941514 -14.026238 -10.750883 49.701489 -15.053823 -13.728621 105.846287 29.488406 35.729065 0.000000 0.000000 0.000000 
-0.475060 0.984668 2.900284 -1.301454 -17.012385 -9.826876 -2.272566 0.087540 1.143024 0.013232 -0.003996 13.510023 3.520946 9.132259 16.998662 0.000000 0.000000 0.000000 4.806865 1.647636 -11.533302 -0.878700 2.594948 25.688882 -0.193825 -6.509124 9.996454 0.000000 0.000000 0.000000 6.370126 -0.855445 13.429873 -5.113089 1.626861 -27.846183 -7.718215 -1.229097 35.680315 5.926405 -3.775046 -30.782108 0.000000 0.000000 0.000000 -13.323917 -5.495471 4.410812 -45.217846 -21.415010 -0.930205 -103.973685 -80.346587 108.749423 0.000000 0.000000 0.000000 15.289974 -14.901120 -10.642942 50.930532 -16.785880 -14.903718 111.501315 29.222784 37.765836 0.000000 0.000000 0.000000 
-0.487174 1.002621 2.945562 -0.778825 -14.881240 -8.630016 -2.026778 -0.030422 0.079598 0.266624 -0.132371 13.350790 1.310851 6.094280 17.643697 0.000000 0.000000 0.000000 3.695666 1.297813 -10.019672 -0.487028 1.073885 14.595238 2.857876 -3.168528 14.857089 0.000000 0.000000 0.000000 6.105860 -0.850344 12.694500 -5.882173 1.847156 -29.489404 -7.238421 -2.197835 36.858390 6.906064 -4.259109 -31.182837 0.000000 0.000000 0.000000 -13.095484 -4.443264 3.847373 -45.353902 -20.895455 -1.146597 -128.869552 -76.698290 133.765131 0.000000 0.000000 0.000000 15.913132 -15.798567 -11.399034 50.414005 -17.318343 -14.891047 118.209016 29.455545 43.115467 0.000000 0.000000 0.000000 
-0.498870 1.001010 2.988597 0.036796 -12.889060 -8.297869 -2.668988 0.019081 0.572108 0.029924 -0.126391 13.296638 1.315069 6.099303 16.082406 0.000000 0.000000 0.000000 2.890643 0.922244 -7.766799 0.097375 0.659722 11.489865 2.828924 -3.612652 16.238695 0.000000 0.000000 0.000000 5.454533 -0.796231 12.128734 -6.984048 2.112166 -28.155028 -6.006395 -2.017246 35.428487 6.943899 -4.187849 -29.519236 0.000000 0.000000 0.000000 -13.136803 -4.443695 3.555907 -45.656500 -18.011960 -2.077657 -137.716855 -70.690797 139.313148 0.000000 0.000000 0.000000 16.741383 -17.042534 -12.065801 50.878747 -16.327682 -14.434001 121.401189 31.224651 49.865716 0.000000 0.000000 0.000000 
-0.509134 0.988319 3.027626 -0.167119 -11.036819 -8.044212 -1.694341 0.058875 0.748096 0.095609 -0.194795 15.184146 1.206433 5.557159 12.703863 0.000000 0.000000 0.000000 2.652336 0.578839 -5.172711 -0.029420 0.536994 9.795470 1.718577 -4.226042 13.970124 0.000000 0.000000 0.000000 5.886898 -0.858342 12.101630 -7.934935 2.346786 -28.176171 -5.013079 -1.533952 35.757556 7.235246 -3.871924 -30.858401 0.000000 0.000000 0.000000 -13.366913 -2.345177 2.256399 -45.250399 -13.417533 -3.836711 -141.986369 -64.434188 139.313366 0.000000 0.000000 0.000000 17.670108 -16.998412 -11.996705 51.257964 -13.720992 -13.484261 124.401871 33.600850 58.425138 0.000000 0.000000 0.000000 
-0.517129 0.974105 3.059917 -0.362171 -9.233810 -7.002794 -0.554053 0.092796 0.911007 -0.177745 -0.187644 16.115879 1.024982 4.671959 9.126505 0.000000 0.000000 0.000000 2.396356 0.299429 -2.920997 0.376033 0.392934 8.932378 0.661924 -4.374422 10.544414 0.000000 0.000000 0.000000 6.178768 -0.948818 12.395152 -8.342471 2.441113 -28.256076 -3.608935 0.315267 34.978287 8.055839 -3.516403 -32.334020 0.000000 0.000000 0.000000 -14.446917 -0.304365 0.740854 -43.634956 -8.755271 -5.311554 -143.699672 -59.586488 135.024771 0.000000 0.000000 0.000000 19.717361 -17.152962 -12.068989 50.615578 -9.940194 -11.696739 124.224857 37.899426 67.666771 0.000000 0.000000 0.000000 
-0.522082 0.971089 3.084169 -0.437477 -7.716394 -5.779454 -0.098440 0.079927 0.762678 -0.211278 -0.231142 15.138389 0.974536 4.304665 7.535111 0.000000 0.000000 0.000000 2.079000 0.130769 -1.495388 0.309956 0.328072 7.812789 0.521136 -3.887691 9.270925 0.000000 0.000000 0.000000 6.430801 -0.979499 11.885672 -8.661266 2.518073 -28.077409 -2.377994 1.665681 35.570147 8.118229 -3.022719 -33.415440 0.000000 0.000000 0.000000 -14.625614 1.416766 -0.540044 -43.662742 -5.922071 -6.250880 -141.803814 -57.018355 128.030388 0.000000 0.000000 0.000000 21.520385 -16.480419 -11.662045 49.855789 -6.251209 -10.183353 125.170714 42.230319 77.468016 0.000000 0.000000 0.000000 
-0.524293 0.973130 3.102627 -0.378409 -6.733903 -3.860212 -0.209064 0.040577 0.391115 -0.024805 -0.274323 12.316884 1.048871 4.355747 7.004186 0.000000 0.000000 0.000000 1.188491 0.110584 -1.292179 0.973800 0.158026 6.585037 0.459183 -3.931424 9.341738 0.000000 0.000000 0.000000 6.244025 -0.919109 10.693675 -7.974257 2.377742 -27.180238 -1.886312 3.553828 35.059074 8.675613 -2.791468 -33.736803 0.000000 0.000000 0.000000 -14.152946 2.123335 -1.357336 -44.568315 -3.269485 -7.075812 -141.262943 -54.985124 123.296505 0.000000 0.000000 0.000000 21.808096 -15.800988 -10.699666 50.650121 -3.456773 -9.309916 126.330995 44.847441 84.940491 0.000000 0.000000 0.000000 
